<svg width="149" height="28" viewBox="0 0 149 28" fill="none" xmlns="http://www.w3.org/2000/svg">
<path d="M14.0205 19.4338C14.0205 19.5823 14.1353 19.7038 14.2737 19.7038H20.5174C20.6558 19.7038 20.7705 19.5823 20.7705 19.4338V17.8138C20.7705 17.6653 20.6558 17.5438 20.5174 17.5438H14.2737C14.1353 17.5438 14.0205 17.6653 14.0205 17.8138V19.4338ZM7.44267 19.6396L13.9227 14.2059C14.0509 14.0979 14.0509 13.8988 13.9227 13.7908L7.44267 8.36038C7.40355 8.32711 7.35571 8.30577 7.30482 8.29888C7.25393 8.292 7.20214 8.29986 7.15559 8.32154C7.10904 8.34322 7.06969 8.3778 7.0422 8.42117C7.01472 8.46455 7.00026 8.5149 7.00054 8.56625V10.6824C7.00054 10.7634 7.03429 10.8376 7.09842 10.8883L10.8042 14L7.09842 17.1118C7.06825 17.137 7.04389 17.1685 7.027 17.204C7.01011 17.2395 7.00108 17.2783 7.00054 17.3176V19.4338C7.00054 19.6633 7.26717 19.7881 7.44267 19.6396ZM26.3055 0.5H1.46554C0.868169 0.5 0.385544 0.982625 0.385544 1.58V26.42C0.385544 27.0174 0.868169 27.5 1.46554 27.5H26.3055C26.9029 27.5 27.3855 27.0174 27.3855 26.42V1.58C27.3855 0.982625 26.9029 0.5 26.3055 0.5ZM24.9555 25.07H2.81554V2.93H24.9555V25.07Z" fill="#F24E1E"/>
<path d="M36.2127 16.8C36.506 17.32 36.826 17.7733 37.1727 18.16C37.5327 18.5467 37.926 18.8467 38.3527 19.06C38.7793 19.2733 39.2393 19.38 39.7327 19.38C40.306 19.38 40.7727 19.2333 41.1327 18.94C41.4927 18.6467 41.6727 18.2467 41.6727 17.74C41.6727 17.3 41.5593 16.9467 41.3327 16.68C41.1193 16.4133 40.7927 16.18 40.3527 15.98C39.926 15.7667 39.3993 15.54 38.7727 15.3C38.4393 15.18 38.0527 15.02 37.6127 14.82C37.186 14.6067 36.7793 14.34 36.3927 14.02C36.006 13.6867 35.686 13.2867 35.4327 12.82C35.1793 12.34 35.0527 11.7667 35.0527 11.1C35.0527 10.3 35.2527 9.61333 35.6527 9.04C36.066 8.45333 36.6193 8.00667 37.3127 7.7C38.0193 7.38 38.806 7.22 39.6727 7.22C40.566 7.22 41.3327 7.37333 41.9727 7.68C42.626 7.97333 43.166 8.35333 43.5927 8.82C44.0327 9.27333 44.3727 9.74667 44.6127 10.24L42.3727 11.48C42.186 11.1467 41.9593 10.8467 41.6927 10.58C41.4393 10.3 41.146 10.08 40.8127 9.92C40.4793 9.74667 40.0993 9.66 39.6727 9.66C39.1127 9.66 38.6927 9.79333 38.4127 10.06C38.1327 10.3133 37.9927 10.6133 37.9927 10.96C37.9927 11.3067 38.106 11.6133 38.3327 11.88C38.5593 12.1333 38.906 12.38 39.3727 12.62C39.8393 12.8467 40.426 13.08 41.1327 13.32C41.586 13.48 42.0193 13.68 42.4327 13.92C42.8593 14.16 43.2393 14.4533 43.5727 14.8C43.9193 15.1333 44.186 15.5333 44.3727 16C44.5727 16.4533 44.6727 16.98 44.6727 17.58C44.6727 18.26 44.5393 18.8667 44.2727 19.4C44.006 19.9333 43.6393 20.3867 43.1727 20.76C42.706 21.12 42.1793 21.3933 41.5927 21.58C41.0193 21.78 40.4127 21.88 39.7727 21.88C38.9193 21.88 38.1193 21.72 37.3727 21.4C36.6393 21.0667 35.9993 20.62 35.4527 20.06C34.906 19.5 34.4793 18.8933 34.1727 18.24L36.2127 16.8ZM47.9444 15.34V12.76H58.2244V15.34H47.9444ZM56.4044 7.5H59.2644V21.5H56.4044V7.5ZM47.0044 7.5H49.8644V21.5H47.0044V7.5ZM62.2778 7.5H65.1778V21.5H62.2778V7.5ZM73.7958 16.62L77.5758 7.5H80.8958L73.7958 22.32L66.6958 7.5H69.9958L73.7958 16.62ZM82.3624 18.32L82.7024 16.06H89.4224L89.7624 18.32H82.3624ZM86.0224 12.04L83.9224 16.86L83.9824 17.5L82.1424 21.5H78.9224L86.0224 6.68L93.1224 21.5H89.8824L88.0824 17.62L88.1224 16.9L86.0224 12.04ZM104.601 7.5H107.361V22.2L97.4011 12.82V21.5H94.6411V6.8L104.601 16.18V7.5ZM111.623 16.8C111.916 17.32 112.236 17.7733 112.583 18.16C112.943 18.5467 113.336 18.8467 113.763 19.06C114.189 19.2733 114.649 19.38 115.143 19.38C115.716 19.38 116.183 19.2333 116.543 18.94C116.903 18.6467 117.083 18.2467 117.083 17.74C117.083 17.3 116.969 16.9467 116.743 16.68C116.529 16.4133 116.203 16.18 115.763 15.98C115.336 15.7667 114.809 15.54 114.183 15.3C113.849 15.18 113.463 15.02 113.023 14.82C112.596 14.6067 112.189 14.34 111.803 14.02C111.416 13.6867 111.096 13.2867 110.843 12.82C110.589 12.34 110.463 11.7667 110.463 11.1C110.463 10.3 110.663 9.61333 111.063 9.04C111.476 8.45333 112.029 8.00667 112.723 7.7C113.429 7.38 114.216 7.22 115.083 7.22C115.976 7.22 116.743 7.37333 117.383 7.68C118.036 7.97333 118.576 8.35333 119.003 8.82C119.443 9.27333 119.783 9.74667 120.023 10.24L117.783 11.48C117.596 11.1467 117.369 10.8467 117.103 10.58C116.849 10.3 116.556 10.08 116.223 9.92C115.889 9.74667 115.509 9.66 115.083 9.66C114.523 9.66 114.103 9.79333 113.823 10.06C113.543 10.3133 113.403 10.6133 113.403 10.96C113.403 11.3067 113.516 11.6133 113.743 11.88C113.969 12.1333 114.316 12.38 114.783 12.62C115.249 12.8467 115.836 13.08 116.543 13.32C116.996 13.48 117.429 13.68 117.843 13.92C118.269 14.16 118.649 14.4533 118.983 14.8C119.329 15.1333 119.596 15.5333 119.783 16C119.983 16.4533 120.083 16.98 120.083 17.58C120.083 18.26 119.949 18.8667 119.683 19.4C119.416 19.9333 119.049 20.3867 118.583 20.76C118.116 21.12 117.589 21.3933 117.003 21.58C116.429 21.78 115.823 21.88 115.183 21.88C114.329 21.88 113.529 21.72 112.783 21.4C112.049 21.0667 111.409 20.62 110.863 20.06C110.316 19.5 109.889 18.8933 109.583 18.24L111.623 16.8ZM123.355 15.34V12.76H133.635V15.34H123.355ZM131.815 7.5H134.675V21.5H131.815V7.5ZM122.415 7.5H125.275V21.5H122.415V7.5Z" fill="#1E1E1E"/>
</svg>
